<?xml version="1.0"?>
<svg xmlns="http://www.w3.org/2000/svg" xmlns:xlink="http://www.w3.org/1999/xlink" version="1.1" x="0px" y="0px" viewBox="0 0 1024 1024" style="enable-background:new 0 0 1024 1024;" xml:space="preserve">
  <g>
    <path d="M512,951c-59.3,0-116.8-11.6-170.9-34.5c-52.3-22.1-99.2-53.8-139.5-94.1s-72-87.3-94.1-139.5C84.6,628.8,73,571.3,73,512   c0-59.3,11.6-116.8,34.5-170.9c22.1-52.3,53.8-99.2,94.1-139.5s87.3-72,139.5-94.1C395.2,84.6,452.7,73,512,73   c59.3,0,116.8,11.6,170.9,34.5c52.3,22.1,99.2,53.8,139.5,94.1s72,87.3,94.1,139.5C939.4,395.2,951,452.7,951,512   c0,59.3-11.6,116.8-34.5,170.9c-22.1,52.3-53.8,99.2-94.1,139.5s-87.3,72-139.5,94.1C628.8,939.4,571.3,951,512,951z M512,103   c-225.5,0-409,183.5-409,409s183.5,409,409,409s409-183.5,409-409S737.5,103,512,103z"/>
    <rect x="345" y="497" width="334" height="30"/>
    <rect x="497" y="345" width="30" height="334"/>
  </g>
</svg>
