<?xml version="1.0"?>
<svg xmlns="http://www.w3.org/2000/svg" xmlns:xlink="http://www.w3.org/1999/xlink" version="1.1" x="0px" y="0px" viewBox="0 0 1024 1024" style="enable-background:new 0 0 1024 1024;" xml:space="preserve">
  <g>
    <path d="M955,323.4H69V203c0-23.4,19.1-42.5,42.5-42.5h801c23.4,0,42.5,19.1,42.5,42.5V323.4z M99,293.4h826V203   c0-6.9-5.6-12.5-12.5-12.5h-801c-6.9,0-12.5,5.6-12.5,12.5V293.4z"/>
    <path d="M880.3,863.5H143.7c-18.1,0-32.8-14.7-32.8-32.8V293.5h802.2v537.2C913.1,848.8,898.4,863.5,880.3,863.5z M140.9,323.5   v507.2c0,1.5,1.3,2.8,2.8,2.8h736.6c1.5,0,2.8-1.3,2.8-2.8V323.5H140.9z"/>
    <path d="M626,507.9H398c-31,0-56.2-25.2-56.2-56.2s25.2-56.2,56.2-56.2h228c31,0,56.2,25.2,56.2,56.2S657,507.9,626,507.9z    M398,425.5c-14.4,0-26.2,11.8-26.2,26.2s11.8,26.2,26.2,26.2h228c14.4,0,26.2-11.8,26.2-26.2s-11.8-26.2-26.2-26.2H398z"/>
  </g>
</svg>
