<?xml version="1.0"?>
<svg xmlns="http://www.w3.org/2000/svg" xmlns:xlink="http://www.w3.org/1999/xlink" version="1.1" x="0px" y="0px" viewBox="0 0 1024 1024" style="enable-background:new 0 0 1024 1024;" xml:space="preserve">
  <g>
    <path d="M821.1,949H202.9c-22.7,0-41.2-18.5-41.2-41.2V116.2c0-22.7,18.5-41.2,41.2-41.2h618.3c22.7,0,41.2,18.5,41.2,41.2V908   C862.2,930.6,843.7,949,821.1,949z M202.9,105c-6.2,0-11.2,5-11.2,11.2v791.6c0,6.2,5,11.2,11.2,11.2h618.2c6.2,0,11.2-5,11.3-11.2   V116.2c0-6.2-5-11.2-11.2-11.2H202.9z"/>
    <path d="M751.4,348.9H272.6c-13.9,0-25.2-11.3-25.2-25.2V185.9c0-13.9,11.3-25.2,25.2-25.2h478.8c13.9,0,25.2,11.3,25.2,25.2v137.8   C776.6,337.6,765.3,348.9,751.4,348.9z M277.4,318.9h469.2V190.7H277.4V318.9z"/>
    <path d="M360.8,524.1h-88.2c-13.9,0-25.2-11.3-25.2-25.2v-61.5c0-13.9,11.3-25.2,25.2-25.2h88.2c13.9,0,25.2,11.3,25.2,25.2V499   C386,512.8,374.7,524.1,360.8,524.1z M277.4,494.1H356v-51.9h-78.6V494.1z"/>
    <path d="M556.1,524.1h-88.2c-13.9,0-25.2-11.3-25.2-25.2v-61.5c0-13.9,11.3-25.2,25.2-25.2h88.2c13.9,0,25.2,11.3,25.2,25.2V499   C581.3,512.8,570,524.1,556.1,524.1z M472.7,494.1h78.6v-51.9h-78.6V494.1z"/>
    <path d="M751.4,524.1h-88.2c-13.9,0-25.2-11.3-25.2-25.2v-61.5c0-13.9,11.3-25.2,25.2-25.2h88.2c13.9,0,25.2,11.3,25.2,25.2V499   C776.6,512.8,765.3,524.1,751.4,524.1z M668,494.1h78.6v-51.9H668V494.1z"/>
    <path d="M360.8,693.7h-88.2c-13.9,0-25.2-11.3-25.2-25.2V607c0-13.9,11.3-25.2,25.2-25.2h88.2c13.9,0,25.2,11.3,25.2,25.2v61.5   C386,682.4,374.7,693.7,360.8,693.7z M277.4,663.7H356v-51.9h-78.6V663.7z"/>
    <path d="M556.1,693.7h-88.2c-13.9,0-25.2-11.3-25.2-25.2V607c0-13.9,11.3-25.2,25.2-25.2h88.2c13.9,0,25.2,11.3,25.2,25.2v61.5   C581.3,682.4,570,693.7,556.1,693.7z M472.7,663.7h78.6v-51.9h-78.6V663.7z"/>
    <path d="M751.4,693.7h-88.2c-13.9,0-25.2-11.3-25.2-25.2V607c0-13.9,11.3-25.2,25.2-25.2h88.2c13.9,0,25.2,11.3,25.2,25.2v61.5   C776.6,682.4,765.3,693.7,751.4,693.7z M668,663.7h78.6v-51.9H668V663.7z"/>
    <path d="M360.8,863.3h-88.2c-13.9,0-25.2-11.3-25.2-25.2v-61.5c0-13.9,11.3-25.2,25.2-25.2h88.2c13.9,0,25.2,11.3,25.2,25.2v61.5   C386,852,374.7,863.3,360.8,863.3z M277.4,833.3H356v-51.9h-78.6V833.3z"/>
    <path d="M556.1,863.3h-88.2c-13.9,0-25.2-11.3-25.2-25.2v-61.5c0-13.9,11.3-25.2,25.2-25.2h88.2c13.9,0,25.2,11.3,25.2,25.2v61.5   C581.3,852,570,863.3,556.1,863.3z M472.7,833.3h78.6v-51.9h-78.6V833.3z"/>
    <path d="M751.4,863.3h-88.2c-13.9,0-25.2-11.3-25.2-25.2v-61.5c0-13.9,11.3-25.2,25.2-25.2h88.2c13.9,0,25.2,11.3,25.2,25.2v61.5   C776.6,852,765.3,863.3,751.4,863.3z M668,833.3h78.6v-51.9H668V833.3z"/>
  </g>
</svg>
