<?xml version="1.0"?>
<svg xmlns="http://www.w3.org/2000/svg" xmlns:xlink="http://www.w3.org/1999/xlink" version="1.1" x="0px" y="0px" viewBox="0 0 1024 1024" style="enable-background:new 0 0 1024 1024;" xml:space="preserve">
  <g>
    <path d="M511.8,938c-57.5,0-113.3-11.3-165.8-33.5c-50.7-21.5-96.3-52.2-135.4-91.3c-39.1-39.1-69.8-84.7-91.3-135.4   c-22.2-52.5-33.5-108.3-33.5-165.8c0-57.5,11.2-113.3,33.3-165.8c21.4-50.7,52-96.3,91-135.4c39-39.1,84.5-69.8,135.1-91.3   C397.8,97.3,453.6,86,511.1,86c235.4,0,427,191.1,427,425.9c0,57.5-11.3,113.3-33.5,165.8c-21.5,50.7-52.2,96.3-91.4,135.4   s-84.7,69.9-135.5,91.3C625.1,926.7,569.3,938,511.8,938z M511.1,116c-217.9,0-395.2,177.6-395.2,395.9   c0,218.4,177.6,396.1,395.9,396.1c218.5,0,396.3-177.7,396.3-396.1C908.1,293.6,730,116,511.1,116z"/>
    <polygon points="697.8,719.4 496,518.1 496,287 526,287 526,505.7 719,698.2  "/>
    <rect x="496" y="101" width="30" height="73"/>
    <rect x="497" y="850" width="30" height="73"/>
    <rect x="101" y="497" width="73" height="30"/>
    <rect x="850" y="497" width="73" height="30"/>
  </g>
</svg>
