<?xml version="1.0"?>
<svg xmlns="http://www.w3.org/2000/svg" xmlns:xlink="http://www.w3.org/1999/xlink" version="1.1" x="0px" y="0px" viewBox="0 0 1024 1024" style="enable-background:new 0 0 1024 1024;" xml:space="preserve">
  <g>
    <path d="M770.1,793H640v-30h130.1c79.6,0,144.3-65,144.3-144.8c0-38.5-15.5-76-42.4-103C844.8,488,808.6,473,770.1,473h-33.2   l-2.2-12.4c-20-115.6-119.8-199.5-237.3-199.5c-104,0-195.9,66.3-228.7,164.9l-3.1,9.2l-9.7,1c-36.9,3.7-71.9,20.5-98.7,47.3   c-30.9,30.9-47.9,71.9-47.9,115.6c0,90.4,73.2,163.9,163.1,163.9H384v30H272.5c-51.3,0-99.8-20.3-136.4-57.2   C99.5,699,79.4,650.5,79.4,599.1c0-26,5.1-51.3,15.2-75.2c9.8-23.1,23.7-43.9,41.5-61.6c29.3-29.3,67.1-48.5,107.3-54.7   c18.4-49.7,50.8-92.5,93.9-124.2c46.7-34.2,102-52.3,160.1-52.3c127.9,0,237.2,88.4,264.4,211.9h8.3c46.5,0,90.2,18.1,123.1,51   c32.5,32.5,51.2,77.8,51.2,124.2c0,46.4-18.2,90.2-51.2,123.3C860.2,774.7,816.5,793,770.1,793z"/>
    <polygon points="512,739.9 367.5,595.4 388.7,574.2 512,697.5 635.3,574.2 656.5,595.4  "/>
    <rect x="497" y="430.7" width="30" height="288"/>
  </g>
</svg>
