<?xml version="1.0"?>
<svg xmlns="http://www.w3.org/2000/svg" xmlns:xlink="http://www.w3.org/1999/xlink" version="1.1" x="0px" y="0px" viewBox="0 0 1024 1024" style="enable-background:new 0 0 1024 1024;" xml:space="preserve">
  <g>
    <path d="M796.9,938H227.1c-29.8,0-54.1-24.3-54.1-54.1V140.1c0-29.8,24.3-54.1,54.1-54.1h401.1L851,308.8v575.1   C851,913.7,826.7,938,796.9,938z M227.1,116c-13.3,0-24.1,10.8-24.1,24.1v743.8c0,13.3,10.8,24.1,24.1,24.1h569.8   c13.3,0,24.1-10.8,24.1-24.1V321.2L615.8,116H227.1z"/>
    <rect x="343" y="481" width="338" height="30"/>
    <rect x="343" y="610" width="338" height="30"/>
    <rect x="343" y="738" width="179" height="30"/>
    <path d="M836,330H658.2c-28.2,0-51.2-23-51.2-51.2V101h30v177.8c0,11.7,9.5,21.2,21.2,21.2H836V330z"/>
  </g>
</svg>
