<?xml version="1.0"?>
<svg xmlns="http://www.w3.org/2000/svg" xmlns:xlink="http://www.w3.org/1999/xlink" version="1.1" x="0px" y="0px" viewBox="0 0 1024 1024" style="enable-background:new 0 0 1024 1024;" xml:space="preserve">
  <path d="M422.7,905.5c-4,0-8-1-11.6-3.1c-7.1-4.2-11.4-11.6-11.4-19.8V546.8L86.4,180.4c-9.6-11.3-11.8-26.6-5.6-40.1  c6.2-13.5,19.3-21.8,34.1-21.8H909c14.9,0,28,8.4,34.2,21.9c6.2,13.5,4.1,28.8-5.6,40.1L624.3,546.8v233.9c0,8.3-4.4,15.9-11.6,20  L434,902.5C430.5,904.5,426.6,905.5,422.7,905.5z M114.9,148.5c-4.3,0-6.2,3.1-6.8,4.4c-0.6,1.3-1.7,4.8,1.1,8.1l320.5,374.8v334.7  l164.6-93.9V535.8l320.5-374.8c2.8-3.3,1.7-6.7,1.1-8c-0.6-1.3-2.5-4.4-6.9-4.4H114.9z"/>
</svg>
