<?xml version="1.0"?>
<svg xmlns="http://www.w3.org/2000/svg" xmlns:xlink="http://www.w3.org/1999/xlink" version="1.1" x="0px" y="0px" viewBox="0 0 1024 1024" style="enable-background:new 0 0 1024 1024;" xml:space="preserve">
  <g>
    <path d="M104.3,863.6c-25-12.9-40.5-38.5-40.5-66.6V194c0-23.2,18.8-42,42-42h215.4c13.6,0,26.5,5.8,35.3,15.9l87.1,98.2   c3.2,3.7,7.9,5.7,12.8,5.7l315.5,0c23.2,0.2,42,19,42,42.1v118H265.3c-9.6,0-18.2,6-21.4,15L111.3,811.4   c-4.1,11.3,1.5,21.7,8.5,26.5L104.3,863.6z M105.8,182c-6.6,0-12,5.4-12,12v577.8l121.9-335c7.5-20.8,27.4-34.8,49.6-34.8h518.5   v-88c0-6.6-5.4-12-12.2-12.1H456.3c-13.5,0-26.3-5.8-35.2-15.9l-87.2-98.4c-3.1-3.6-7.7-5.6-12.7-5.6H105.8z"/>
    <path d="M772.3,872H132.7c-10.9,0-21.3-3.3-30.1-9.4C83,849,75,823.8,83.1,801.2l132.5-364.5c7.5-20.8,27.5-34.8,49.6-34.8h647.6   c17.6,0,31.9,6.5,40.2,18.3c8.3,11.9,9.5,27.6,3.4,44.4L821.9,837.2C814.4,858,794.4,872,772.3,872z M265.2,432   c-9.5,0-18.1,6-21.4,15L111.3,811.4c-3.5,9.7,0,20.7,8.5,26.6c3.8,2.6,8.2,4,12.9,4h639.6c9.5,0,18.1-6,21.4-15l134.5-372.5   c2.6-7.2,2.7-13.3,0.2-16.9c-2.5-3.6-8-5.5-15.6-5.5H265.2z"/>
  </g>
</svg>
