<?xml version="1.0"?>
<svg xmlns="http://www.w3.org/2000/svg" xmlns:xlink="http://www.w3.org/1999/xlink" version="1.1" x="0px" y="0px" viewBox="0 0 1024 1024" style="enable-background:new 0 0 1024 1024;" xml:space="preserve">
  <g>
    <path d="M889.4,352.5c-20.7-48.8-50.2-92.6-87.8-130.2c-37.6-37.6-81.4-67.2-130.2-87.8c-50.5-21.4-104.1-32.2-159.4-32.2   s-108.9,10.8-159.4,32.2c-48.8,20.7-92.6,50.2-130.2,87.8c-37.6,37.6-67.2,81.4-87.8,130.2c-21.4,50.5-32.2,104.1-32.2,159.4   c0,55.3,10.8,108.9,32.2,159.4c20.7,48.8,50.2,92.6,87.8,130.2c37.6,37.6,81.4,67.2,130.2,87.8c50.5,21.4,104.1,32.2,159.4,32.2   s108.9-10.8,159.4-32.2c48.8-20.7,92.6-50.2,130.2-87.8c37.6-37.6,67.2-81.4,87.8-130.2c21.4-50.5,32.2-104.1,32.2-159.4   C921.6,456.6,910.8,403,889.4,352.5z M512,891.5c-209.3,0-379.5-170.2-379.5-379.5S302.7,132.5,512,132.5S891.5,302.7,891.5,512   S721.3,891.5,512,891.5z"/>
    <rect x="497" y="430" width="30" height="290"/>
    <path d="M537,314.9c0,13.8-11.2,25-25,25s-25-11.2-25-25c0-13.8,11.2-25,25-25S537,301.1,537,314.9z"/>
  </g>
</svg>
