<?xml version="1.0"?>
<svg xmlns="http://www.w3.org/2000/svg" xmlns:xlink="http://www.w3.org/1999/xlink" version="1.1" x="0px" y="0px" viewBox="0 0 1024 1024" style="enable-background:new 0 0 1024 1024;" xml:space="preserve">
  <g>
    <path d="M168.5,601.7c-49.5,0-89.7-40.2-89.7-89.7s40.2-89.7,89.7-89.7s89.7,40.2,89.7,89.7S218,601.7,168.5,601.7z M168.5,452.3   c-32.9,0-59.7,26.8-59.7,59.7s26.8,59.7,59.7,59.7s59.7-26.8,59.7-59.7S201.4,452.3,168.5,452.3z"/>
    <path d="M512,601.7c-49.5,0-89.7-40.2-89.7-89.7s40.2-89.7,89.7-89.7s89.7,40.2,89.7,89.7S561.5,601.7,512,601.7z M512,452.3   c-32.9,0-59.7,26.8-59.7,59.7s26.8,59.7,59.7,59.7s59.7-26.8,59.7-59.7S544.9,452.3,512,452.3z"/>
    <path d="M855.5,601.7c-49.5,0-89.7-40.2-89.7-89.7s40.2-89.7,89.7-89.7s89.7,40.2,89.7,89.7S905,601.7,855.5,601.7z M855.5,452.3   c-32.9,0-59.7,26.8-59.7,59.7s26.8,59.7,59.7,59.7s59.7-26.8,59.7-59.7S888.4,452.3,855.5,452.3z"/>
  </g>
</svg>
