<?xml version="1.0"?>
<svg xmlns="http://www.w3.org/2000/svg" xmlns:xlink="http://www.w3.org/1999/xlink" version="1.1" x="0px" y="0px" viewBox="0 0 1024 1024" style="enable-background:new 0 0 1024 1024;" xml:space="preserve">
  <g>
    <g transform="translate(0.868 0.499)">
      <path d="M889.9,944H134.1c-29.8-0.1-54.1-24.4-54.1-54.1V134.3c0.1-29.8,24.4-54.2,54.2-54.3H347v277.5c0,7.4,6.1,13.5,13.5,13.5    h303c7.4,0,13.5-6.1,13.5-13.5V80h103l164,169v640.9C943.9,919.6,919.6,943.9,889.9,944z M134.3,110c-13.3,0-24.2,10.9-24.3,24.3    v755.6c0,13.3,10.9,24.1,24.2,24.1h755.7c13.3,0,24.1-10.9,24.1-24.2V261.1L767.3,110H707v247.5c0,24-19.5,43.5-43.5,43.5h-303    c-24,0-43.5-19.5-43.5-43.5V110H134.3z"/>
      <rect x="528" y="95" width="30" height="184"/>
      <rect x="328" y="80" width="359" height="30"/>
      <path d="M511.9,800.1c-75.9,0-137.7-61.8-137.7-137.7c0-75.9,61.8-137.7,137.7-137.7c75.9,0,137.7,61.8,137.7,137.7    C649.6,738.3,587.9,800.1,511.9,800.1z M511.9,554.7c-59.4,0-107.7,48.3-107.7,107.7c0,59.4,48.3,107.7,107.7,107.7    c59.4,0,107.7-48.3,107.7-107.7C619.6,603,571.3,554.7,511.9,554.7z"/>
    </g>
  </g>
</svg>
