<?xml version="1.0"?>
<svg xmlns="http://www.w3.org/2000/svg" xmlns:xlink="http://www.w3.org/1999/xlink" version="1.1" x="0px" y="0px" viewBox="0 0 1024 1024" style="enable-background:new 0 0 1024 1024;" xml:space="preserve">
  <g>
    <polygon points="224.7,601.2 79.5,456 100.7,434.8 224.7,558.8 348.8,434.8 370,456  "/>
    <polygon points="675.2,578.9 654,557.7 799.3,412.4 944.5,557.7 923.3,578.9 799.3,454.8  "/>
    <path d="M511.9,823.3c-27.3,0-54.4-3.5-80.6-10.5c-51.3-13.8-98.5-40.6-136.5-77.7l20.9-21.5c34.3,33.5,77,57.7,123.3,70.2   c23.6,6.3,48.1,9.5,72.8,9.5c155.1,0,281.3-126.2,281.3-281.3c0-24.9-3.2-49.4-9.5-72.8l29-7.8c7,25.9,10.5,53,10.5,80.6   c0,83.1-32.4,161.3-91.2,220.1C673.3,790.9,595.1,823.3,511.9,823.3z"/>
    <path d="M208.9,582.9c-5.4-22.9-8.1-46.7-8.1-70.9c0-83.1,32.4-161.3,91.2-220.1c58.8-58.8,137-91.2,220.1-91.2   c23.7,0,47.6,2.7,70.9,8.1c52.1,12.2,100.5,37.8,140,74.2L702.6,305c-35.7-32.9-79.4-56.1-126.4-67c-21-4.8-42.6-7.3-64.1-7.3   C357,230.7,230.8,356.9,230.8,512c0,21.9,2.5,43.5,7.3,64.1L208.9,582.9z"/>
  </g>
</svg>
