<?xml version="1.0"?>
<svg xmlns="http://www.w3.org/2000/svg" xmlns:xlink="http://www.w3.org/1999/xlink" version="1.1" x="0px" y="0px" viewBox="0 0 1024 1024" style="enable-background:new 0 0 1024 1024;" xml:space="preserve">
  <g>
    <path d="M384,772H272.5c-51.3,0-99.8-20.2-136.4-57c-36.6-36.7-56.7-85.3-56.7-136.7c0-51.6,20.1-100.1,56.7-136.7   c29.2-29.2,67.1-48.4,107.3-54.7c18.5-49.8,50.8-92.6,93.9-124.3c46.7-34.3,102-52.4,160.1-52.4c64.2,0,126.4,22.9,175.3,64.4   c45,38.3,76.4,90.2,89.1,147.3h8.3c46.4,0,90.2,18.2,123.1,51.3c32.5,32.5,51.2,77.8,51.2,124.1c0,46.4-18.2,90.2-51.2,123.2   c-33,33.1-76.8,51.4-123.1,51.4H640v-30h130.1c79.6,0,144.3-64.9,144.3-144.6c0-38.4-15.5-75.9-42.4-102.9   c-27.3-27.4-63.5-42.5-101.9-42.5h-33.2l-2.2-12.4C714.6,324,614.8,240.2,497.4,240.2c-104,0-195.9,66.4-228.7,165.1l-3.1,9.2   l-9.6,1c-37,3.8-72,20.6-98.7,47.3c-30.9,30.9-47.9,71.9-47.9,115.5c0,90.3,73.2,163.7,163.1,163.7H384V772z"/>
    <polygon points="635.3,655.1 512,531.9 388.7,655.1 367.5,633.9 512,489.5 656.5,633.9  "/>
    <rect x="497" y="510.7" width="30" height="287.9"/>
  </g>
</svg>
