<?xml version="1.0"?>
<svg xmlns="http://www.w3.org/2000/svg" xmlns:xlink="http://www.w3.org/1999/xlink" version="1.1" x="0px" y="0px" viewBox="0 0 1024 1024" style="enable-background:new 0 0 1024 1024;" xml:space="preserve">
  <g>
    <path d="M491.3,772.6c-52,0-102.1-15.3-145.1-44.2C274.1,680,231,599.2,231,512.3s43.1-167.7,115.2-216.2   c42.9-28.9,93.1-44.1,145.1-44.1c52,0,102.1,15.3,145.1,44.2c32.1,21.6,59.4,50.5,79.1,83.7c20.5,34.6,32.4,72.4,35.4,112.6   c0.5,6.1,0.7,12.6,0.7,19.8c0,7.2-0.2,13.7-0.7,19.9c-3,40.1-14.9,78-35.4,112.6c-19.7,33.2-47,62.2-79,83.7   C593.4,757.3,543.3,772.6,491.3,772.6z M491.3,282c-46,0-90.4,13.5-128.3,39c-63.9,42.9-102,114.4-102,191.3s38.1,148.4,102,191.2   c38,25.5,82.4,39.1,128.3,39.1c46,0,90.4-13.5,128.3-39c59.1-39.8,96-103.1,101.3-173.8c0.4-5.5,0.7-11.2,0.7-17.6   c0-6.4-0.2-12-0.6-17.4l0-0.1c-5.3-70.7-42.2-134-101.3-173.7C581.7,295.5,537.3,282,491.3,282z"/>
    <path d="M613.2,310l-20.7-187.9v-0.8c0-6.4-5.4-11.8-11.8-11.8H402.1c-6.4,0-11.8,5.4-11.8,11.8v0.8l-0.1,0.8L369.6,310l-29.8-3.3   l20.5-186.4c0.5-22.6,19-40.9,41.8-40.9h178.6c22.7,0,41.3,18.3,41.8,40.9L643,306.8L613.2,310z"/>
    <path d="M580.7,944.5H402.1c-22.7,0-41.3-18.3-41.8-40.9l-20.5-186.4l29.8-3.3l20.7,187.9v0.8c0,6.4,5.4,11.8,11.8,11.8h178.6   c6.4,0,11.8-5.4,11.8-11.8v-0.8l0.1-0.8L613.2,714l29.8,3.3l-20.5,186.4C622,926.2,603.4,944.5,580.7,944.5z"/>
    <rect x="763" y="476" width="30" height="77"/>
    <polygon points="578.3,622.8 475,518.4 475,400 505,400 505,506 599.7,601.8  "/>
  </g>
</svg>
